<?xml version="1.0" encoding="UTF-8"?>
<!-- Uploaded to: SVG Find, www.svgfind.com, Generator: SVG Find Mixer Tools -->
<svg fill="#000000" width="800px" height="800px" version="1.1" viewBox="144 144 512 512" xmlns="http://www.w3.org/2000/svg">
 <g>
  <path d="m246.29 334.8c-1.0391-0.003907-2.0352-0.42188-2.7695-1.1562l-12.797-12.797v-21.613c0-2.1719 1.7578-3.9297 3.9297-3.9297h23.527c1.043 0 2.043 0.41406 2.7773 1.1484 0.73828 0.73828 1.1523 1.7383 1.1523 2.7812v21.461l-1.2109 1.3086-12.039 11.641c-0.68359 0.6875-1.5977 1.1016-2.5703 1.1562zm-8.6133-16.977 8.6133 8.6133 8.6133-8.6133 0.003906-15.57h-17.23z"/>
  <path d="m258.02 383.32h-23.527c-2.168 0-3.9297-1.7617-3.9297-3.9297v-21.516l1.2109-1.3086 11.738-11.738c1.5312-1.5234 4.0078-1.5234 5.543 0l12.797 12.797v21.914c-0.082031 2.0742-1.7578 3.7266-3.832 3.7812zm-20.152-7.0547h17.031v-15.566l-8.6133-8.6133-8.6172 8.6133z"/>
  <path d="m286.39 354.96h-21.414l-1.3086-1.1094-11.789-11.836c-1.5234-1.5352-1.5234-4.0117 0-5.543l12.797-12.797h21.914c1.043 0 2.043 0.41406 2.7812 1.1523 0.73438 0.73438 1.1484 1.7344 1.1484 2.7773v23.527c-0.023437 1.0625-0.47656 2.0664-1.2578 2.7852-0.77734 0.72266-1.8125 1.0977-2.8711 1.043zm-18.691-7.0547h15.566v-17.277h-15.566l-8.7656 8.6133z"/>
  <path d="m226.13 354.96h-20.152c-2.168 0-3.9297-1.7578-3.9297-3.9297v-23.527c0-2.1719 1.7617-3.9297 3.9297-3.9297h21.461l1.3086 1.2109 11.738 11.738h0.003907c1.5234 1.5312 1.5234 4.0078 0 5.5391l-12.594 12.598zm-16.879-7.0547h15.566l8.9219-8.6641-8.6133-8.6133h-15.824z"/>
  <path d="m246.29 397.73c-15.887 0-31.121-6.3086-42.355-17.543-11.234-11.234-17.547-26.473-17.547-42.359s6.3125-31.125 17.547-42.359c11.234-11.23 26.469-17.543 42.355-17.543 15.887 0 31.125 6.3125 42.359 17.543 11.234 11.234 17.543 26.473 17.543 42.359-0.011719 15.883-6.3281 31.113-17.559 42.344-11.23 11.23-26.461 17.547-42.344 17.559zm0-112.75v0.003907c-14.008 0.023437-27.438 5.6133-37.328 15.535-9.8906 9.9258-15.438 23.367-15.418 37.379 0.015626 14.012 5.5977 27.441 15.512 37.34 9.918 9.8984 23.359 15.453 37.371 15.445 14.008-0.011719 27.441-5.582 37.348-15.492 9.9023-9.9102 15.469-23.348 15.469-37.359-0.015625-14.031-5.6016-27.48-15.531-37.391-9.9297-9.9102-23.391-15.473-37.422-15.457z"/>
  <path d="m318.98 385.94c5.6016 0 10.969 2.2266 14.93 6.1836 3.957 3.957 6.1797 9.3281 6.1797 14.926 0 5.6016-2.2227 10.969-6.1797 14.93-3.9609 3.957-9.3281 6.1797-14.93 6.1797-5.5977 0-10.965-2.2227-14.926-6.1797-3.957-3.9609-6.1836-9.3281-6.1836-14.93 0.015625-5.5938 2.2422-10.953 6.1992-14.91s9.3164-6.1836 14.91-6.1992m0-7.0547v0.003906c-7.4688 0-14.633 2.9648-19.914 8.2461s-8.2461 12.445-8.2461 19.914 2.9648 14.633 8.2461 19.914 12.445 8.25 19.914 8.25c7.4727 0 14.633-2.9688 19.914-8.25 5.2852-5.2812 8.25-12.445 8.25-19.914s-2.9648-14.633-8.25-19.914c-5.2812-5.2812-12.441-8.2461-19.914-8.2461z"/>
  <path d="m318.98 368.66c10.184 0 19.949 4.0469 27.148 11.246 7.1992 7.1992 11.242 16.965 11.242 27.145 0 10.184-4.043 19.949-11.242 27.148-7.1992 7.1992-16.965 11.242-27.148 11.242-10.18 0-19.945-4.043-27.145-11.242-7.1992-7.1992-11.246-16.965-11.246-27.148 0.015625-10.176 4.0625-19.934 11.262-27.129 7.1953-7.1992 16.953-11.246 27.129-11.262m0-7.0547v0.003906c-12.023 0-23.559 4.7773-32.062 13.281-8.5 8.5-13.277 20.035-13.277 32.059 0 12.027 4.7773 23.562 13.277 32.062 8.5039 8.5039 20.039 13.281 32.062 13.281 12.027 0 23.559-4.7773 32.062-13.281 8.5039-8.5 13.281-20.035 13.281-32.062 0-12.023-4.7773-23.559-13.281-32.059-8.5039-8.5039-20.035-13.281-32.062-13.281z"/>
  <path d="m553.71 397.73c-15.887 0-31.125-6.3086-42.359-17.543-11.234-11.234-17.543-26.473-17.543-42.359s6.3086-31.125 17.543-42.359c11.234-11.23 26.473-17.543 42.359-17.543 15.887 0 31.125 6.3125 42.359 17.543 11.23 11.234 17.543 26.473 17.543 42.359-0.011719 15.883-6.3281 31.113-17.559 42.344-11.23 11.23-26.461 17.547-42.344 17.559zm0-112.75v0.003907c-14.016 0-27.461 5.5664-37.371 15.477-9.9102 9.9141-15.48 23.355-15.48 37.371s5.5703 27.461 15.48 37.371c9.9102 9.9102 23.355 15.48 37.371 15.48 14.016 0 27.457-5.5703 37.371-15.48 9.9102-9.9102 15.477-23.355 15.477-37.371-0.011719-14.012-5.582-27.445-15.492-37.355-9.9102-9.9062-23.344-15.48-37.355-15.492z"/>
  <path d="m299.74 293.59c-1.9492 0-3.5273-1.5781-3.5273-3.5273v-8.5664 0.003906c0-1.9492 1.5781-3.5273 3.5273-3.5273 1.9453 0 3.5234 1.5781 3.5234 3.5273v8.5664-0.003906c0 1.9492-1.5781 3.5273-3.5234 3.5273z"/>
  <path d="m497.34 293.59c-1.9492 0-3.5273-1.5781-3.5273-3.5273v-8.5664 0.003906c0-1.9492 1.5781-3.5273 3.5273-3.5273 1.9453 0 3.5234 1.5781 3.5234 3.5273v8.5664-0.003906c0 0.9375-0.37109 1.832-1.0312 2.4961-0.66016 0.66016-1.5586 1.0312-2.4922 1.0312z"/>
  <path d="m521.27 328.76c3.668 0 6.9727 2.207 8.3789 5.5977 1.4023 3.3867 0.62891 7.2891-1.9648 9.8828s-6.4961 3.3672-9.8828 1.9648c-3.3906-1.4023-5.6016-4.7109-5.6016-8.3789 0-5.0078 4.0625-9.0664 9.0703-9.0664m0-7.0547c-4.2773 0-8.375 1.6992-11.398 4.7227-3.0234 3.0234-4.7227 7.1211-4.7227 11.398s1.6992 8.375 4.7227 11.398c3.0234 3.0234 7.1211 4.7227 11.398 4.7227s8.375-1.6992 11.398-4.7227c3.0234-3.0234 4.7227-7.1211 4.7227-11.398s-1.6992-8.375-4.7227-11.398c-3.0234-3.0234-7.1211-4.7227-11.398-4.7227z"/>
  <path d="m585.9 328.76c3.668 0 6.9766 2.207 8.3789 5.5977 1.4062 3.3867 0.62891 7.2891-1.9648 9.8828s-6.4922 3.3672-9.8828 1.9648c-3.3867-1.4023-5.5977-4.7109-5.5977-8.3789 0-5.0078 4.0586-9.0664 9.0664-9.0664m0-7.0547c-4.2734 0-8.375 1.6992-11.398 4.7227-3.0234 3.0234-4.7227 7.1211-4.7227 11.398s1.6992 8.375 4.7227 11.398c3.0234 3.0234 7.125 4.7227 11.398 4.7227 4.2773 0 8.3789-1.6992 11.402-4.7227 3.0234-3.0234 4.7227-7.1211 4.7227-11.398s-1.6992-8.375-4.7227-11.398c-3.0234-3.0234-7.125-4.7227-11.402-4.7227z"/>
  <path d="m553.61 296.41c3.668 0 6.9766 2.2109 8.3789 5.5977 1.4023 3.3906 0.62891 7.2891-1.9648 9.8828s-6.4961 3.3711-9.8828 1.9688c-3.3906-1.4062-5.5977-4.7109-5.5977-8.3789 0-5.0078 4.0586-9.0703 9.0664-9.0703m0-7.0547v0.003906c-4.2734 0-8.375 1.6953-11.398 4.7188-3.0234 3.0234-4.7227 7.125-4.7227 11.402 0 4.2734 1.6992 8.375 4.7227 11.398 3.0234 3.0234 7.125 4.7227 11.398 4.7227 4.2773 0 8.3789-1.6992 11.402-4.7227 3.0234-3.0234 4.7188-7.125 4.7188-11.398 0-4.2773-1.6953-8.3789-4.7188-11.402-3.0234-3.0234-7.125-4.7188-11.402-4.7188z"/>
  <path d="m553.61 361.11c3.668 0 6.9766 2.207 8.3789 5.5977 1.4023 3.3867 0.62891 7.2891-1.9648 9.8828s-6.4961 3.3672-9.8828 1.9648c-3.3906-1.4023-5.5977-4.7109-5.5977-8.3789 0-5.0078 4.0586-9.0664 9.0664-9.0664m0-7.0547c-4.2734 0-8.375 1.6992-11.398 4.7227-3.0234 3.0234-4.7227 7.125-4.7227 11.398 0 4.2773 1.6992 8.3789 4.7227 11.402 3.0234 3.0234 7.125 4.7188 11.398 4.7188 4.2773 0 8.3789-1.6953 11.402-4.7188 3.0234-3.0234 4.7188-7.125 4.7188-11.402 0-4.2734-1.6953-8.375-4.7188-11.398-3.0234-3.0234-7.125-4.7227-11.402-4.7227z"/>
  <path d="m400 426.05c-4.1445 0-8.1172-1.6484-11.047-4.5742-2.9258-2.9297-4.5742-6.9023-4.5742-11.047 0-4.1406 1.6484-8.1133 4.5742-11.043 2.9297-2.9297 6.9023-4.5742 11.047-4.5742 4.1406 0 8.1133 1.6445 11.043 4.5742 2.9297 2.9297 4.5742 6.9023 4.5742 11.043 0 4.1445-1.6445 8.1172-4.5742 11.047-2.9297 2.9258-6.9023 4.5742-11.043 4.5742zm0-24.133c-3.4648 0-6.5898 2.0859-7.9141 5.2852-1.3242 3.2031-0.59375 6.8867 1.8555 9.3359 2.4492 2.4492 6.1328 3.1797 9.3359 1.8555 3.1992-1.3242 5.2852-4.4492 5.2852-7.9141 0.015625-2.2773-0.88281-4.4688-2.4883-6.0859-1.6094-1.6172-3.7969-2.5273-6.0742-2.5273z"/>
  <path d="m481.01 385.94c5.5977 0 10.969 2.2266 14.926 6.1836 3.9609 3.957 6.1836 9.3281 6.1836 14.926 0 5.6016-2.2227 10.969-6.1836 14.93-3.957 3.957-9.3281 6.1797-14.926 6.1797-5.5977 0-10.969-2.2227-14.926-6.1797-3.9609-3.9609-6.1836-9.3281-6.1836-14.93 0.011718-5.5938 2.2422-10.953 6.1953-14.91 3.957-3.957 9.3203-6.1836 14.914-6.1992m0-7.0547v0.003906c-7.4688 0-14.633 2.9648-19.914 8.2461s-8.25 12.445-8.25 19.914 2.9688 14.633 8.25 19.914 12.445 8.25 19.914 8.25 14.633-2.9688 19.914-8.25 8.25-12.445 8.25-19.914-2.9688-14.633-8.25-19.914-12.445-8.2461-19.914-8.2461z"/>
  <path d="m481.01 368.66c10.18 0 19.945 4.0469 27.145 11.246s11.246 16.965 11.246 27.145c0 10.184-4.0469 19.949-11.246 27.148s-16.965 11.242-27.145 11.242c-10.184 0-19.945-4.043-27.148-11.242-7.1992-7.1992-11.242-16.965-11.242-27.148 0.011718-10.176 4.0625-19.934 11.258-27.129 7.1992-7.1992 16.953-11.246 27.133-11.262m0-7.0547v0.003906c-12.027 0-23.559 4.7773-32.062 13.281-8.5039 8.5-13.281 20.035-13.281 32.059 0 12.027 4.7773 23.562 13.281 32.062 8.5039 8.5039 20.035 13.281 32.062 13.281 12.023 0 23.559-4.7773 32.062-13.281 8.5039-8.5 13.281-20.035 13.281-32.062 0-12.023-4.7773-23.559-13.281-32.059-8.5039-8.5039-20.039-13.281-32.062-13.281z"/>
  <path d="m598.65 558.09h-0.55469c-27.406-0.35156-40.91-25.746-51.742-46.098l-1.2109-2.2148v-0.003906c-12.562-24.469-23.844-49.578-33.805-75.219-0.55078-1.7656 0.35547-3.6562 2.0781-4.332 1.7227-0.67578 3.6758 0.09375 4.4727 1.7656 9.8711 25.383 21.055 50.238 33.504 74.461l1.2109 2.2656c10.48 19.699 22.371 42.066 45.594 42.371 21.766 0 39.699-20.152 44.082-39.551 5.6914-24.887-12.695-124.14-19.598-151.14-5.0391-20.152-17.027-66.754-39.145-95.723l-58.695 0.003906-8.2109 6.0977h-32.141l-0.003907 72.395c0 6.4023-5.1875 11.59-11.59 11.59h-146.11 0.003906c-6.4023 0-11.59-5.1875-11.59-11.59v-72.246h-31.641l-1.1602-0.80469-7.2539-5.3906h-58.691c-22.117 28.918-34.059 75.57-39.145 95.723-6.9023 26.953-25.191 126.2-19.598 151.14 4.3828 18.992 22.266 39.547 43.629 39.547h0.45312c23.227-0.30078 35.266-22.672 45.594-42.371l1.2109-2.2656c12.449-24.258 23.633-49.145 33.5-74.562 0.79688-1.6719 2.75-2.4414 4.4727-1.7656s2.6289 2.5664 2.0781 4.332c-9.9766 25.625-21.277 50.715-33.855 75.172l-1.2109 2.2148c-10.832 20.152-24.336 45.746-51.742 46.098h-0.55469c-24.836 0-45.344-23.277-50.383-45.039-6.3477-27.762 13.906-131.95 19.648-154.42 5.2461-20.707 17.84-69.375 41.316-99.352l1.0586-1.3594h64.438l1.1602 0.80469 7.2539 5.3398h32.797c1.043 0 2.043 0.41406 2.7812 1.1523 0.73438 0.73828 1.1484 1.7383 1.1484 2.7773v75.574c0 2.5039 2.0312 4.5312 4.5352 4.5312h146.11c2.5039 0 4.5352-2.0273 4.5352-4.5312v-75.574c0-2.168 1.7578-3.9297 3.9297-3.9297h32.797l8.2109-6.0977h64.387l1.3594 1.5625c23.227 29.727 35.824 78.395 41.164 99.203 5.7422 22.469 25.996 126.66 19.648 154.42-4.9883 21.762-25.695 45.039-50.531 45.039z"/>
  <path d="m456.07 444.13h-112.75c-1.9492 0-3.5273-1.5781-3.5273-3.5273s1.5781-3.5273 3.5273-3.5273h112.75c1.9453 0 3.5234 1.5781 3.5234 3.5273s-1.5781 3.5273-3.5234 3.5273z"/>
  <path d="m480.61 274.95c-1.3086 0.003906-2.5078-0.71094-3.125-1.8633l-3.6289-6.8516h-147.87l-3.6289 6.8516h0.003906c-0.92188 1.7227-3.0625 2.3789-4.7891 1.4609-1.7227-0.91797-2.3789-3.0625-1.4609-4.7852l5.4922-10.379h156.33l1.3594 2.0156 4.5352 8.5664v-0.003906c0.51562 1.082 0.44141 2.3516-0.1875 3.3711-0.63281 1.0195-1.7383 1.6445-2.9375 1.668z"/>
  <path d="m274.5 258.18c-1.1016 0.011719-2.1445-0.49219-2.8203-1.3594-3.7656-4.9531-9.6016-7.8906-15.82-7.9609h-17.078c-6.1953 0.035156-12.027 2.9141-15.82 7.8086-0.54688 0.79688-1.3984 1.3359-2.3555 1.4883-0.95312 0.15234-1.9297-0.09375-2.6992-0.68359-0.76562-0.58594-1.2617-1.4648-1.3633-2.4258-0.10156-0.96094 0.19531-1.9258 0.82422-2.6602 5.1445-6.6016 13.043-10.465 21.414-10.48h17.23-0.003907c8.3867 0.039062 16.289 3.9414 21.414 10.582 0.82422 1.0586 0.97656 2.5 0.38672 3.707-0.58594 1.2109-1.8125 1.9805-3.1562 1.9844z"/>
  <path d="m581.37 258.18c-1.1016 0.011719-2.1445-0.49219-2.8242-1.3594-3.7188-4.8984-9.4688-7.8281-15.617-7.9609h-17.281c-6.1914 0.035156-12.023 2.9141-15.816 7.8086-0.55078 0.79688-1.3984 1.3359-2.3555 1.4883-0.95312 0.15234-1.9297-0.09375-2.6992-0.68359-0.76953-0.58594-1.2617-1.4648-1.3633-2.4258-0.10156-0.96094 0.19531-1.9258 0.82422-2.6602 5.125-6.6406 13.023-10.543 21.41-10.582h17.23c8.3867 0.039063 16.289 3.9414 21.414 10.582 0.91016 1.0781 1.0898 2.6016 0.45312 3.8633-0.63672 1.2617-1.9648 2.0195-3.375 1.9297z"/>
  <path d="m404.03 386.25c0 5.3711-8.0586 5.3711-8.0586 0 0-5.375 8.0586-5.375 8.0586 0"/>
  <path d="m391.94 386.25c0 5.3711-8.0625 5.3711-8.0625 0 0-5.375 8.0625-5.375 8.0625 0"/>
  <path d="m416.12 386.25c0 5.3711-8.0625 5.3711-8.0625 0 0-5.375 8.0625-5.375 8.0625 0"/>
  <path d="m404.03 366.14c0 5.375-8.0586 5.375-8.0586 0 0-5.3711 8.0586-5.3711 8.0586 0"/>
  <path d="m391.94 366.14c0 5.375-8.0625 5.375-8.0625 0 0-5.3711 8.0625-5.3711 8.0625 0"/>
  <path d="m416.12 366.14c0 5.375-8.0625 5.375-8.0625 0 0-5.3711 8.0625-5.3711 8.0625 0"/>
  <path d="m428.21 366.14c0 5.375-8.0586 5.375-8.0586 0 0-5.3711 8.0586-5.3711 8.0586 0"/>
  <path d="m379.85 366.14c0 5.375-8.0625 5.375-8.0625 0 0-5.3711 8.0625-5.3711 8.0625 0"/>
  <path d="m410.07 376.17c0 5.375-8.0586 5.375-8.0586 0s8.0586-5.375 8.0586 0"/>
  <path d="m397.98 376.17c0 5.375-8.0625 5.375-8.0625 0s8.0625-5.375 8.0625 0"/>
  <path d="m422.17 376.17c0 5.375-8.0625 5.375-8.0625 0s8.0625-5.375 8.0625 0"/>
  <path d="m385.89 376.17c0 5.375-8.0586 5.375-8.0586 0s8.0586-5.375 8.0586 0"/>
 </g>
</svg>