<?xml version="1.0" encoding="UTF-8"?>
<!-- Uploaded to: SVG Find, www.svgfind.com, Generator: SVG Find Mixer Tools -->
<svg fill="#000000" width="800px" height="800px" version="1.1" viewBox="144 144 512 512" xmlns="http://www.w3.org/2000/svg">
 <g>
  <path d="m249.31 326.95c-1.0195 0.011719-2-0.38672-2.7188-1.1094l-12.445-12.445v-13.648c0-6.2344 5.0508-11.285 11.285-11.285h7.9609c6.2109 0.027344 11.234 5.0703 11.234 11.285v13.453l-1.1602 1.2578-11.387 11.387v-0.003906c-0.72656 0.74219-1.7305 1.1445-2.7695 1.1094zm-8.4141-16.473 8.4141 8.3633 8.3633-8.3633v-10.73c0-2.4297-1.9531-4.4062-4.3828-4.4336h-7.9609c-2.4492 0-4.4336 1.9844-4.4336 4.4336z"/>
  <path d="m253.29 374.1h-7.9609c-6.2305 0-11.285-5.0508-11.285-11.285v-13.199l1.1094-1.2578 11.438-11.438c0.71094-0.72266 1.6797-1.1289 2.6953-1.1289 1.0117 0 1.9844 0.40625 2.6953 1.1289l12.445 12.445v13.656l-0.003906-0.003907c-0.10547 6.0938-5.0352 11.004-11.133 11.082zm-12.395-22.016v10.73c0 1.1758 0.46875 2.3047 1.3008 3.1367 0.83203 0.83203 1.957 1.2969 3.1328 1.2969h7.9609c2.4297-0.027344 4.3828-2.0039 4.3828-4.4336v-10.73l-8.3633-8.3633z"/>
  <path d="m280.8 346.54h-13.402l-1.2578-1.1602-11.438-11.383c-1.457-1.5195-1.457-3.9219 0-5.4414l12.445-12.445h13.656-0.003906c6.2344 0 11.285 5.0547 11.285 11.285v7.9609c-0.054687 6.1953-5.0898 11.184-11.285 11.184zm-10.68-7h10.68c1.1758 0 2.3047-0.46875 3.1367-1.3008 0.82812-0.83203 1.2969-1.957 1.2969-3.1328v-7.8125c0-1.1758-0.46875-2.3008-1.2969-3.1328-0.83203-0.83203-1.9609-1.2969-3.1367-1.2969h-10.68l-8.4141 8.4141z"/>
  <path d="m229.71 346.54h-11.941c-6.2305 0-11.285-5.0508-11.285-11.285v-7.9609c0-6.2305 5.0547-11.285 11.285-11.285h13.352l1.2578 1.1094 12.496 12.344v1.7148c-0.007812 1.0117-0.40625 1.9883-1.1094 2.7188l-12.445 12.395zm-11.941-23.68v0.003907c-2.4492 0-4.4336 1.9844-4.4336 4.4297v7.9609c0 1.1758 0.46875 2.3047 1.3008 3.1367s1.957 1.2969 3.1328 1.2969h10.934l8.4141-8.4141-8.4141-8.4102z"/>
  <path d="m322.26 428.52c-8.0195 0-15.707-3.1875-21.375-8.8555-5.668-5.668-8.8555-13.359-8.8555-21.375s3.1875-15.707 8.8555-21.375c5.668-5.668 13.355-8.8516 21.375-8.8516 8.0156 0 15.703 3.1836 21.375 8.8516 5.668 5.668 8.8516 13.359 8.8516 21.375s-3.1836 15.707-8.8516 21.375c-5.6719 5.668-13.359 8.8555-21.375 8.8555zm0-53.656c-6.2188 0-12.18 2.4688-16.574 6.8672-4.3906 4.3984-6.8594 10.359-6.8555 16.574 0.007813 6.2188 2.4805 12.176 6.8828 16.566 4.3984 4.3906 10.363 6.8555 16.578 6.8438 6.2188-0.007813 12.176-2.4844 16.562-6.8906 4.3867-4.4023 6.8477-10.367 6.832-16.586 0.015625-6.2148-2.4492-12.184-6.8477-16.578-4.3945-4.3984-10.363-6.8633-16.578-6.8477z"/>
  <path d="m477.33 428.52c-8.0156 0-15.703-3.1875-21.375-8.8555-5.668-5.668-8.8516-13.359-8.8516-21.375s3.1836-15.707 8.8516-21.375c5.6719-5.668 13.359-8.8516 21.375-8.8516 8.0195 0 15.707 3.1836 21.375 8.8516 5.6719 5.668 8.8555 13.359 8.8555 21.375s-3.1836 15.707-8.8555 21.375c-5.668 5.668-13.355 8.8555-21.375 8.8555zm0-53.656c-6.2148 0-12.176 2.4688-16.57 6.8672-4.3945 4.3984-6.8594 10.359-6.8555 16.574 0.003906 6.2188 2.4805 12.176 6.8789 16.566 4.4023 4.3906 10.367 6.8555 16.582 6.8438 6.2148-0.007813 12.172-2.4844 16.562-6.8906 4.3867-4.4023 6.8438-10.367 6.832-16.586 0.011719-6.2148-2.4531-12.184-6.8477-16.578-4.3984-4.3984-10.363-6.8633-16.582-6.8477z"/>
  <path d="m403.02 362.52c0 4.0312-6.043 4.0312-6.043 0s6.043-4.0312 6.043 0"/>
  <path d="m393.9 362.52c0 4.0312-6.0469 4.0312-6.0469 0s6.0469-4.0312 6.0469 0"/>
  <path d="m412.14 362.52c0 4.0312-6.0469 4.0312-6.0469 0s6.0469-4.0312 6.0469 0"/>
  <path d="m421.26 362.52c0 4.0312-6.043 4.0312-6.043 0s6.043-4.0312 6.043 0"/>
  <path d="m384.79 362.52c0 4.0312-6.0469 4.0312-6.0469 0s6.0469-4.0312 6.0469 0"/>
  <path d="m407.61 370.12c0 4.0312-6.0469 4.0312-6.0469 0 0-4.0273 6.0469-4.0273 6.0469 0"/>
  <path d="m398.44 370.12c0 4.0312-6.0469 4.0312-6.0469 0 0-4.0273 6.0469-4.0273 6.0469 0"/>
  <path d="m416.73 370.12c0 4.0312-6.0469 4.0312-6.0469 0 0-4.0273 6.0469-4.0273 6.0469 0"/>
  <path d="m389.32 370.12c0 4.0312-6.043 4.0312-6.043 0 0-4.0273 6.043-4.0273 6.043 0"/>
  <path d="m226.54 561.22-4.6836-5.0391c22.723-21.363 28.766-48.012 33.199-67.461 1.1406-8.125 3.6992-15.984 7.5586-23.227l5.5938 3.9805c-3.2344 6.4688-5.4258 13.406-6.5 20.555-4.5859 20.457-10.883 48.266-35.168 71.191z"/>
  <path d="m286.99 292.99c-1.9883-0.023437-3.9219-0.65625-5.5391-1.8125-2.0664-1.4609-3.4453-3.6992-3.8281-6.1953l-1.5625-9.6719v-0.003906c-0.40625-2.5195 0.22266-5.1016 1.7383-7.1562 1.5156-2.0547 3.793-3.4141 6.3203-3.7773 2.4883-0.40625 5.0312 0.19531 7.0742 1.6719 2.043 1.4727 3.4141 3.7031 3.8086 6.1875l1.6133 9.6719v0.003906c0.38281 2.5703-0.28906 5.1875-1.8633 7.2539-1.4727 2.0508-3.7031 3.4297-6.1992 3.8281-0.51953 0.050781-1.043 0.050781-1.5625 0zm-1.5625-21.867h-0.40234v0.003906c-0.70703 0.125-1.3398 0.52344-1.7617 1.1055-0.40234 0.57422-0.56641 1.2773-0.45312 1.9688l1.6133 9.9219c0.097657 0.70703 0.48047 1.3438 1.0586 1.7656 0.57031 0.40234 1.2734 0.5625 1.9648 0.45312 0.6875-0.10547 1.3086-0.48828 1.7109-1.0586 0.42188-0.58203 0.58594-1.3086 0.45312-2.0156l-1.5625-9.6719c-0.10156-1.3789-1.2383-2.4492-2.6172-2.4688z"/>
  <path d="m606.86 560.36c-3.043-0.17578-5.9727-1.2188-8.4453-3.0039-2.4727-1.7852-4.3828-4.2383-5.5117-7.0703v-0.45312c-0.35156-1.0078-35.266-97.438-53.605-131.45-11.172-19.512-23.965-38.047-38.238-55.418-4.6562-5.375-8.8242-11.16-12.445-17.281-3.0898-8.1758-3.9219-17.035-2.418-25.645 1.0078-9.4219 10.531-54.312 10.934-56.227v0.003906c0.32031-3.2578-0.51953-6.5234-2.3672-9.2227-2.0938-2.4375-5.0586-3.9609-8.2617-4.2305-47.559-4.2812-85.648-4.1328-86.301-4.1328-0.65625 0-38.793 0-86.352 4.1797l-0.003906 0.003907c-3.1719 0.28516-6.1133 1.7852-8.2109 4.1797-1.9375 2.7227-2.832 6.0469-2.5195 9.3711 0.35156 1.7148 10.078 46.602 10.883 56.023 1.5039 8.6133 0.66797 17.469-2.4219 25.645-3.582 6.1523-7.7148 11.969-12.34 17.383-14.277 17.371-27.066 35.906-38.242 55.418-18.391 34.008-53.254 130.44-53.605 131.45v0.45313c-6.8516 12.594-16.273 9.7734-16.676 9.6719-26.047-8.0117-38.539-38.441-37.582-90.383 1.7109-83.734 39.949-204.6 56.426-209.03 33.852-8.4336 68.348-14.047 103.13-16.777h1.3594c47.508-4.2305 85.344-4.082 85.949-4.082 0.60547 0 38.492 0 85.949 4.082h1.3633c34.781 2.7344 69.277 8.3477 103.13 16.777 16.477 4.4336 54.715 125.3 56.426 209.03 1.0078 51.941-11.488 82.371-37.23 90.383-0.89844 0.25781-1.8359 0.375-2.7695 0.35156zm-307.62-308.48c-29.574 2.8633-58.891 7.9141-87.715 15.113-10.781 4.7344-55.723 133.56-50.984 221.07 1.8125 37.434 12.746 59.402 31.941 65.395 0.40234 0 4.5352 0.90625 8.4648-6.1953 2.5664-6.5977 35.566-98.191 53.906-132.15 11.359-19.852 24.367-38.711 38.895-56.375 4.207-4.9844 8.0625-10.254 11.535-15.77 2.6055-7.0859 3.2656-14.742 1.9141-22.168-1.0078-9.0703-10.73-55.117-10.832-55.418v-0.003906c-0.54297-4.6914 0.46484-9.4336 2.875-13.5zm299.82 295.38c3.9297 7.1055 8.1133 6.2969 8.5664 6.1953 19.195-5.9961 30.23-27.961 32.043-65.191 4.7344-87.512-40.305-216.34-51.086-221.07h-0.003906c-28.84-7.3281-58.195-12.449-87.812-15.316 2.2773 4.0039 3.2266 8.6211 2.7188 13.199 0 0.65625-10.078 46.703-10.883 55.773-1.3477 7.4258-0.6875 15.078 1.9141 22.168 3.4766 5.5156 7.332 10.785 11.539 15.766 14.59 17.645 27.672 36.488 39.094 56.328 18.34 33.957 51.34 125.55 53.91 132.15z"/>
  <path d="m221.35 564.04h-0.30078c-2.8711 0-26.25-3.3242-28.867-3.6797l0.90625-6.8008c10.078 1.3594 25.191 3.375 27.961 3.6289 0.48047-0.61328 0.83984-1.3164 1.0547-2.0664 0.25-0.70703 15.418-39.449 21.16-52.949 10.078-23.98 20.555-40.305 31.59-50.684 11.035-10.379 22.773-8.918 32.496-7.2539 3.1016 0.64453 6.2539 1.0156 9.4219 1.1055h166.26c3.1641-0.089844 6.3203-0.46094 9.4219-1.1055 9.7227-1.6641 20.707-3.5273 32.496 7.2539 11.035 10.078 21.363 26.703 31.59 50.684 5.7422 13.504 20.906 52.246 21.059 52.648h-0.003906c0.24219 0.85156 0.63281 1.6523 1.1602 2.3672 3.0234 0 18.086-2.2656 27.961-3.6289l0.90625 6.8008c-2.6211 0.35156-25.996 3.5781-28.867 3.6797-4.082 0-6.6992-3.6797-7.6562-7.0547 0 0-15.113-38.742-20.859-52.145-3.6289-8.4648-14.609-34.258-29.926-48.266-9.3203-8.5664-17.734-7.1055-26.703-5.5938v0.003906c-3.4844 0.70703-7.0234 1.1133-10.578 1.207h-166.26c-3.5547-0.09375-7.0938-0.5-10.582-1.207-8.9688-1.5117-17.383-2.9727-26.703 5.5938-15.113 14.008-26.301 39.801-29.926 48.266-5.7422 13.348-20.855 52.043-20.855 52.395-0.95703 3.0234-3.4258 6.8008-7.3555 6.8008z"/>
  <path d="m573.46 561.22c-24.285-22.824-30.582-50.383-35.266-70.887-1.0742-7.1523-3.2695-14.09-6.5-20.555l5.6914-4.2852c3.832 7.1641 6.3906 14.938 7.5586 22.977 4.4336 19.445 10.48 46.098 33.199 67.461z"/>
  <path d="m513 292.99c-0.51953 0.050781-1.043 0.050781-1.5625 0-2.4922-0.39844-4.7227-1.7773-6.1953-3.8281-1.4688-2.0586-2.0625-4.6094-1.6641-7.1016l1.6133-9.6719v-0.003907c0.84766-5.1758 5.7305-8.6836 10.906-7.832 5.1758 0.84766 8.6836 5.7305 7.8359 10.906l-1.5625 9.6719c-0.82422 4.5352-4.7656 7.8359-9.3711 7.8594zm1.5625-21.867v0.003906c-1.2969 0.003906-2.4023 0.9375-2.6211 2.2148l-1.5625 9.6719v0.003906c-0.13281 0.70312 0.03125 1.4336 0.45313 2.0117 0.40234 0.57422 1.0234 0.95312 1.7148 1.0586 0.69922 0.19922 1.4531 0.10156 2.082-0.26953 0.62891-0.37109 1.0781-0.98438 1.2422-1.6953l1.3086-10.074c0.11719-0.70312-0.050782-1.4219-0.46875-2-0.41406-0.57422-1.043-0.96094-1.7461-1.0742z"/>
  <path d="m457.68 351.08h-115.37c-8.6641 0-28.719 0-37.887-46.098l6.75-1.3594c8.0625 40.559 23.629 40.605 31.137 40.605h115.32c7.5586 0 23.125 0 31.188-40.605l6.75 1.3594c-9.168 45.996-29.219 46.098-37.887 46.098z"/>
  <path d="m410.07 427.71h-20.152c-1.8906 0-3.4258-1.5312-3.4258-3.4258 0-1.8906 1.5352-3.4258 3.4258-3.4258h20.152c1.8906 0 3.4258 1.5352 3.4258 3.4258 0 1.8945-1.5352 3.4258-3.4258 3.4258z"/>
  <path d="m402.92 436.88c0 4.0273-6.0469 4.0273-6.0469 0 0-4.0312 6.0469-4.0312 6.0469 0"/>
  <path d="m551.14 315.41c-5.1172 0-10.023-2.0352-13.645-5.6523-3.6172-3.6211-5.6523-8.5273-5.6523-13.645 0-5.1172 2.0352-10.027 5.6523-13.645 3.6211-3.6172 8.5273-5.6523 13.645-5.6523s10.027 2.0352 13.645 5.6523c3.6211 3.6172 5.6523 8.5273 5.6523 13.645-0.011719 5.1133-2.0508 10.012-5.668 13.629-3.6133 3.6172-8.5156 5.6523-13.629 5.668zm0-31.738v-0.003906c-5.0312 0-9.5703 3.0312-11.496 7.6836-1.9258 4.6484-0.86328 10 2.6992 13.562 3.5586 3.5586 8.9102 4.6211 13.559 2.6953 4.6523-1.9258 7.6836-6.4648 7.6836-11.496-0.027344-6.8633-5.582-12.418-12.445-12.445z"/>
  <path d="m551.14 386.34c-5.1172 0-10.023-2.0312-13.645-5.6484-3.6172-3.6211-5.6523-8.5273-5.6523-13.645 0-5.1172 2.0352-10.027 5.6523-13.645 3.6211-3.6211 8.5273-5.6523 13.645-5.6523s10.027 2.0312 13.645 5.6523c3.6211 3.6172 5.6523 8.5273 5.6523 13.645 0 5.1172-2.0312 10.023-5.6523 13.645-3.6172 3.6172-8.5273 5.6484-13.645 5.6484zm0-31.688c-5.0352 0-9.5781 3.0352-11.5 7.6914-1.9258 4.6562-0.85156 10.016 2.7188 13.57 3.5703 3.5547 8.9297 4.6055 13.578 2.6641 4.6484-1.9414 7.668-6.4961 7.6484-11.531-0.027344-6.8555-5.5898-12.395-12.445-12.395z"/>
  <path d="m586.81 351.08c-5.1172 0-10.027-2.0312-13.645-5.6523-3.6211-3.6172-5.6523-8.5273-5.6523-13.645s2.0312-10.023 5.6523-13.645c3.6172-3.6172 8.5273-5.6484 13.645-5.6484s10.023 2.0312 13.645 5.6484c3.6172 3.6211 5.6484 8.5273 5.6484 13.645-0.011719 5.1133-2.0508 10.016-5.6641 13.633-3.6172 3.6133-8.5156 5.6523-13.629 5.6641zm0-31.738c-5.0352 0-9.5703 3.0312-11.5 7.6797-1.9258 4.6523-0.85938 10.004 2.6992 13.562 3.5586 3.5586 8.9102 4.625 13.562 2.6992 4.6484-1.9297 7.6797-6.4648 7.6797-11.5-0.054687-6.8398-5.6016-12.363-12.441-12.391z"/>
  <path d="m515.88 351.08c-5.1172 0-10.027-2.0312-13.645-5.6523-3.6172-3.6172-5.6523-8.5273-5.6523-13.645s2.0352-10.023 5.6523-13.645c3.6172-3.6172 8.5273-5.6484 13.645-5.6484s10.023 2.0312 13.645 5.6484c3.6172 3.6211 5.6523 8.5273 5.6523 13.645-0.015625 5.1133-2.0508 10.016-5.668 13.633-3.6172 3.6133-8.5156 5.6523-13.629 5.6641zm0-31.688c-5.0352 0-9.5703 3.0312-11.496 7.6797-1.9258 4.6523-0.86328 10.004 2.6953 13.562 3.5586 3.5586 8.9141 4.625 13.562 2.6953 4.6484-1.9258 7.6836-6.4609 7.6836-11.496 0-6.8711-5.5742-12.441-12.445-12.441z"/>
  <path d="m220.69 262.16h-6.8516v-10.078l1.3594-1.0078 0.003906 0.003907c9.1836-6.5664 19.656-11.102 30.73-13.301 17.938-3.2734 30.633-1.5625 34.812 0.40234l2.0156 0.90625v11.688h-6.8516v-6.9023c-9.5156-1.5938-19.25-1.3359-28.668 0.75781-9.4727 1.9258-18.473 5.6914-26.5 11.082z"/>
  <path d="m585.55 262.16h-6.8516v-6.5c-8.0234-5.3906-17.027-9.1562-26.5-11.082-9.418-2.0938-19.152-2.3516-28.668-0.75781v6.9023h-6.8516v-11.688l2.0156-0.90625c4.1328-1.9648 16.879-3.6797 34.812-0.40234 11.074 2.1992 21.551 6.7344 30.734 13.301l1.3594 1.0078z"/>
 </g>
</svg>